<svg version="1.1" xmlns="http://www.w3.org/2000/svg" viewBox="-2320.1361716398046 -1851.3689489692617 5596.6884727172355 4063.1858164063033"><desc>Created with Snap</desc><defs></defs><g><g transform="matrix(12.8113,0,0,12.8113,-2084.0572,-2382.0413)">
<g id="gSl5e2rck01a4">
	<g>
		<g>
			<path d="M387.88501,83.59349V316.4075H12.115V83.59349H387.88501 M391.96945,79.50903H8.03054v240.98294h383.9389V79.50903
				L391.96945,79.50903z" fill="#6daedb" style=""></path>
			<path d="M38.30037,67.71037l353.83911,50.25497l-30.43997,214.32426L7.86052,282.03564L38.30037,67.71037 M36.56565,65.4009
				L5.55142,283.77075l357.88281,50.82834l31.01434-218.36884L36.56565,65.4009L36.56565,65.4009z" fill="#6daedb" style=""></path>
			<path d="M361.69949,67.71037l30.43997,214.32527L38.30037,332.28961L7.86052,117.96535L361.69949,67.71037 M363.43423,65.4009
				L5.55142,116.23025l31.01422,218.36884l357.88293-50.82834L363.43423,65.4009L363.43423,65.4009z" fill="#6daedb" style=""></path>
		</g>
		<rect x="47.64159" y="114.85448" width="304.71683" height="170.29103" fill="#6daedb" style=""></rect>
	</g>
</g>


<desc>Created with Snap</desc><defs></defs></g><g><g transform="matrix(1.024,0,0,-1.024,0,0)"><path d="M185 -5Q128 -5 78 21Q29 48 -1 95L30 129Q59 86 98 63Q138 41 185 41Q255 41 289 81Q324 122 324 206L324 654L66 654L66 700L375 700L375 206Q375 101 327 48Q279 -5 185 -5ZM729 -4Q666 -4 609 15Q552 34 520 63L543 103Q575 76 625 58Q676 40 731 40Q810 40 847 66Q885 92 885 138Q885 171 864 190Q844 209 814 218Q784 227 731 237Q669 248 631 261Q593 274 566 303Q539 332 539 383Q539 445 590 485Q642 526 737 526Q787 526 836 512Q885 498 916 475L893 435Q861 458 820 470Q779 482 736 482Q663 482 626 455Q589 428 589 384Q589 349 610 329Q631 310 661 300Q692 291 747 280Q808 269 845 256Q883 244 909 216Q935 188 935 139Q935 74 881 35Q827 -4 729 -4Z" fill="#173753" style=""></path></g></g><g transform="matrix(1,0,0,1,-1243.136,1072.128)"><g transform="matrix(1.024,0,0,-1.024,0,0)"><path d="M306 -5Q229 -5 159 21Q90 48 51 90L74 128Q111 89 173 64Q236 40 305 40Q405 40 456 78Q507 116 507 177Q507 224 480 252Q453 280 413 295Q373 310 305 326Q228 345 181 363Q135 381 102 418Q70 456 70 519Q70 570 97 612Q124 655 179 680Q235 705 318 705Q376 705 432 688Q488 671 529 642L510 601Q468 630 417 645Q367 660 318 660Q221 660 171 621Q121 582 121 520Q121 473 148 445Q175 417 215 402Q255 387 324 370Q401 351 447 333Q493 315 525 278Q558 242 558 180Q558 129 530 87Q503 45 446 20Q389 -5 306 -5ZM1157 263L1156 249L707 249Q709 188 738 140Q767 93 816 67Q866 41 928 41Q979 41 1022 59Q1066 78 1095 114L1124 81Q1090 40 1038 18Q987 -4 927 -4Q849 -4 788 30Q727 64 692 124Q658 184 658 261Q658 337 690 397Q723 458 780 492Q837 526 908 526Q979 526 1035 492Q1092 459 1124 399Q1157 339 1157 263ZM908 482Q853 482 809 457Q765 433 738 388Q712 344 708 288L1108 288Q1105 344 1078 388Q1051 432 1007 457Q963 482 908 482ZM1488 526Q1585 526 1637 476Q1689 427 1689 331L1689 0L1641 0L1641 93Q1616 47 1568 21Q1520 -4 1453 -4Q1366 -4 1315 37Q1265 78 1265 145Q1265 210 1311 250Q1358 291 1460 291L1639 291L1639 333Q1639 406 1599 444Q1560 482 1484 482Q1432 482 1384 464Q1337 446 1304 416L1279 452Q1318 487 1373 506Q1428 526 1488 526ZM1460 37Q1525 37 1570 67Q1616 97 1639 154L1639 252L1461 252Q1384 252 1349 224Q1315 196 1315 147Q1315 96 1353 66Q1391 37 1460 37ZM1943 408Q1967 465 2018 495Q2069 526 2142 526L2142 477L2130 478Q2043 478 1994 423Q1945 369 1945 272L1945 0L1895 0L1895 522L1943 522L1943 408ZM2496 -4Q2420 -4 2360 30Q2300 64 2266 124Q2232 185 2232 261Q2232 338 2266 398Q2300 459 2360 492Q2420 526 2496 526Q2559 526 2610 501Q2662 477 2694 430L2657 403Q2629 442 2587 461Q2546 481 2496 481Q2435 481 2386 453Q2338 426 2310 376Q2283 326 2283 261Q2283 196 2310 146Q2338 96 2386 68Q2435 41 2496 41Q2546 41 2587 60Q2629 80 2657 119L2694 92Q2662 45 2610 20Q2559 -4 2496 -4ZM3099 526Q3197 526 3254 469Q3311 412 3311 305L3311 0L3261 0L3261 301Q3261 389 3216 435Q3172 481 3092 481Q3000 481 2947 426Q2894 371 2894 278L2894 0L2844 0L2844 742L2894 742L2894 413Q2921 467 2974 496Q3027 526 3099 526Z" fill="#173753" style=""></path></g></g></g></svg>